<?xml version="1.0" encoding="utf-8"?>
<!-- Generator: Adobe Illustrator 22.0.1, SVG Export Plug-In . SVG Version: 6.00 Build 0)  -->
<svg version="1.1" id="Layer_1" xmlns="http://www.w3.org/2000/svg" xmlns:xlink="http://www.w3.org/1999/xlink" x="0px" y="0px"
	 viewBox="0 0 17 17" style="enable-background:new 0 0 17 17;" xml:space="preserve">
<style type="text/css">
	.st0{fill:#FFFFFF;}
</style>
<path class="st0" d="M9.5,8.5l7.3-7.3c0.3-0.3,0.3-0.7,0-1s-0.7-0.3-1,0L8.5,7.5L1.2,0.2c-0.3-0.3-0.7-0.3-1,0s-0.3,0.7,0,1l7.3,7.3
	l-7.3,7.3c-0.3,0.3-0.3,0.7,0,1C0.3,16.9,0.5,17,0.7,17s0.3-0.1,0.5-0.2l7.3-7.3l7.3,7.3c0.1,0.1,0.3,0.2,0.5,0.2s0.3-0.1,0.5-0.2
	c0.3-0.3,0.3-0.7,0-1L9.5,8.5z"/>
</svg>
