<svg width="22" height="22" viewBox="0 0 22 22" fill="none" xmlns="http://www.w3.org/2000/svg">
<path d="M1.22375 0H20.79C21.4638 0 22 0.53625 22 1.21V20.79C22 21.45 21.4638 22 20.79 22H15.18V13.475H18.04L18.4663 10.1613H15.18V8.04375C15.18 7.08125 15.455 6.42125 16.83 6.42125H18.59V3.45125C18.2875 3.41 17.2425 3.3275 16.0325 3.3275C13.4887 3.3275 11.7563 4.8675 11.7563 7.71375V10.1613H8.8825V13.475H11.7563V22H1.22375C0.90156 22 0.59236 21.873 0.363253 21.6464C0.134147 21.4199 0.00362012 21.1122 0 20.79V1.21C0 0.53625 0.55 0 1.22375 0Z" fill="#CAB54B"/>
</svg>
