<svg width="20" height="20" viewBox="0 0 20 20" fill="none" xmlns="http://www.w3.org/2000/svg">
<path d="M1.46802 0.399902H18.544C19.132 0.399902 19.6 0.867902 19.6 1.4559V18.5439C19.6 19.1199 19.132 19.5999 18.544 19.5999H13.648V12.1599H16.144L16.516 9.2679H13.648V7.4199C13.648 6.5799 13.888 6.0039 15.088 6.0039H16.624V3.4119C16.36 3.3759 15.448 3.3039 14.392 3.3039C12.172 3.3039 10.66 4.6479 10.66 7.1319V9.2679H8.15202V12.1599H10.66V19.5999H1.46802C1.18684 19.5999 0.916993 19.489 0.717045 19.2913C0.517098 19.0936 0.403184 18.8251 0.400024 18.5439V1.4559C0.400024 0.867902 0.880024 0.399902 1.46802 0.399902Z" fill="white"/>
</svg>
