<svg width="16" height="16" viewBox="0 0 16 16" fill="none" xmlns="http://www.w3.org/2000/svg">
<path fill-rule="evenodd" clip-rule="evenodd" d="M5.28033 4.21967C4.98744 3.92678 4.51256 3.92678 4.21967 4.21967C3.92678 4.51256 3.92678 4.98744 4.21967 5.28033L7.02267 8.08333L4.21967 10.8863C3.92678 11.1792 3.92678 11.6541 4.21967 11.947C4.51256 12.2399 4.98744 12.2399 5.28033 11.947L8.08333 9.14399L10.8863 11.947C11.1792 12.2399 11.6541 12.2399 11.947 11.947C12.2399 11.6541 12.2399 11.1792 11.947 10.8863L9.14399 8.08333L11.947 5.28033C12.2399 4.98744 12.2399 4.51256 11.947 4.21967C11.6541 3.92678 11.1792 3.92678 10.8863 4.21967L8.08333 7.02267L5.28033 4.21967Z" fill="#C54B38"/>
</svg>
