<svg width="195" height="85" viewBox="0 0 195 85" fill="none" xmlns="http://www.w3.org/2000/svg">
<path d="M3.24668 81.9977L3.44604 83.4183H3.45554L3.66439 81.9693L5.43012 76.2395H5.92377L7.70849 81.9882L7.92684 83.4088H7.93633L8.16417 81.9598L9.61663 76.23H10.6039L8.21163 84.9525H7.64204L5.89529 79.2038L5.67695 77.9063H5.61049L5.39215 79.2227L3.6454 84.962H3.07581L0.617065 76.2395H1.69929L3.24668 81.9882V81.9977Z" fill="white"/>
<path d="M12.7114 76.249H17.3915V77.1582H13.7272V79.971H17.0783V80.8802H13.7272V83.9298H17.4485V84.839H12.7019V76.2585L12.7114 76.249Z" fill="white"/>
<path d="M24.3596 82.4523H21.2078L20.3534 84.8295H19.3376L22.5938 76.1069H23.059L26.3246 84.8295H25.2424L24.3596 82.4523ZM21.5306 81.5716H24.0463L23.097 78.9576L22.7932 77.6601H22.7837L22.4799 78.986L21.5401 81.5716H21.5306Z" fill="white"/>
<path d="M33.5206 84.8295H28.4322V76.249H29.448V83.9298H33.5206V84.839V84.8295Z" fill="white"/>
<path d="M39.8145 77.1582H37.1374V84.839H36.1217V77.1582H33.4446V76.249H39.824V77.1582H39.8145Z" fill="white"/>
<path d="M47.2003 80.899H43.0707V84.8388H42.0549V76.2583H43.0707V79.9993H47.2003V76.2583H48.216V84.8388H47.2003V80.899Z" fill="white"/>
<path d="M59.418 82.6512C59.418 82.3102 59.3136 82.0261 59.1142 81.8083C58.9054 81.5905 58.6491 81.401 58.3453 81.2306C58.0415 81.0601 57.6998 80.9086 57.339 80.757C56.9783 80.6055 56.646 80.435 56.3327 80.2267C56.0195 80.0183 55.7726 79.7626 55.5638 79.4501C55.3549 79.147 55.26 78.7492 55.26 78.2757C55.26 77.6033 55.4973 77.0729 55.9625 76.6846C56.4277 76.2963 57.0922 76.0974 57.9561 76.0974C58.4592 76.0974 58.9149 76.1353 59.3231 76.2111C59.7313 76.2868 60.0541 76.3815 60.2819 76.4952L59.9781 77.4044C59.7883 77.3097 59.513 77.2244 59.1522 77.1392C58.7915 77.054 58.3738 77.0161 57.9181 77.0161C57.377 77.0161 56.9688 77.1392 56.703 77.376C56.4372 77.6127 56.2948 77.8969 56.2948 78.2283C56.2948 78.5598 56.3992 78.8155 56.5985 79.0239C56.8074 79.2322 57.0637 79.4311 57.3675 79.5921C57.6713 79.7626 58.013 79.9236 58.3738 80.0846C58.7345 80.2456 59.0668 80.435 59.3706 80.6529C59.6743 80.8707 59.9307 81.1264 60.1395 81.4295C60.3484 81.7325 60.4433 82.1113 60.4433 82.5565C60.4433 82.9258 60.3768 83.2573 60.2439 83.5509C60.111 83.8445 59.9212 84.1002 59.6648 84.3086C59.4085 84.5169 59.1047 84.6874 58.744 84.801C58.3833 84.9147 57.9751 84.9715 57.5099 84.9715C56.8928 84.9715 56.3897 84.9242 55.9815 84.8295C55.5828 84.7347 55.2695 84.6306 55.0511 84.5169L55.3929 83.6077C55.5828 83.7119 55.8581 83.8161 56.2283 83.9108C56.5985 84.0055 57.0067 84.0623 57.4719 84.0623C57.7377 84.0623 57.994 84.0339 58.2314 83.9866C58.4687 83.9297 58.6776 83.8445 58.8484 83.7309C59.0193 83.6077 59.1617 83.4657 59.2566 83.2857C59.3516 83.1058 59.4085 82.8974 59.4085 82.6512H59.418Z" fill="white"/>
<path d="M68.5884 77.1582H65.9114V84.839H64.8956V77.1582H62.2185V76.249H68.5979V77.1582H68.5884Z" fill="white"/>
<path d="M70.8288 76.3342C71.1421 76.2774 71.5028 76.2301 71.9016 76.2016C72.3098 76.1732 72.68 76.1543 73.0123 76.1543C73.392 76.1543 73.7432 76.1922 74.085 76.2774C74.4268 76.3627 74.721 76.4952 74.9869 76.6847C75.2432 76.8741 75.452 77.1203 75.6039 77.4234C75.7558 77.7264 75.8412 78.0958 75.8412 78.5315C75.8412 79.2039 75.6609 79.7437 75.2906 80.1604C74.9204 80.5771 74.4552 80.8518 73.8856 80.9938L74.4742 81.4484L76.6102 84.8484H75.4141L73.0408 81.1454L71.8351 80.956V84.839H70.8193V76.3437L70.8288 76.3342ZM73.0408 77.0351H72.7085C72.5946 77.0351 72.4806 77.0351 72.3762 77.0445C72.2718 77.0445 72.1674 77.0635 72.0724 77.073C71.9775 77.073 71.9016 77.0919 71.8446 77.1108V80.2741H72.8034C73.373 80.2741 73.8382 80.132 74.2084 79.8574C74.5786 79.5827 74.759 79.1471 74.759 78.5599C74.759 78.1147 74.6071 77.7549 74.3033 77.4707C73.9996 77.1866 73.5819 77.0445 73.0408 77.0445V77.0351Z" fill="white"/>
<path d="M82.8757 82.4523H79.724L78.8696 84.8295H77.8538L81.11 76.1069H81.5752L84.8408 84.8295H83.7586L82.8757 82.4523ZM80.0467 81.5716H82.5625L81.6131 78.9576L81.3093 77.6601H81.2999L80.9961 78.986L80.0562 81.5716H80.0467Z" fill="white"/>
<path d="M91.6854 77.1582H89.0083V84.839H87.9926V77.1582H85.3155V76.249H91.6949V77.1582H91.6854Z" fill="white"/>
<path d="M93.9258 76.249H98.606V77.1582H94.9416V79.971H98.2927V80.8802H94.9416V83.9298H98.6629V84.839H93.9163V76.2585L93.9258 76.249Z" fill="white"/>
<path d="M104.387 80.558H107.273V84.3369C107.14 84.4316 106.988 84.5263 106.799 84.6115C106.618 84.6968 106.419 84.7631 106.21 84.8199C106.001 84.8767 105.783 84.9241 105.555 84.9525C105.327 84.9809 105.109 84.9998 104.9 84.9998C104.349 84.9998 103.846 84.9146 103.391 84.7347C102.935 84.5547 102.536 84.2895 102.194 83.9296C101.862 83.5698 101.596 83.1057 101.406 82.5469C101.217 81.9881 101.122 81.3252 101.122 80.5675C101.122 79.8099 101.236 79.0996 101.463 78.5313C101.691 77.9631 101.995 77.5085 102.365 77.1486C102.735 76.7887 103.144 76.533 103.609 76.372C104.065 76.211 104.53 76.1257 104.985 76.1257C105.479 76.1257 105.887 76.1541 106.201 76.2015C106.523 76.2583 106.789 76.3246 107.007 76.4193L106.751 77.3285C106.362 77.1296 105.792 77.0349 105.071 77.0349C104.729 77.0349 104.387 77.0918 104.046 77.2149C103.704 77.3285 103.4 77.5274 103.134 77.8115C102.868 78.0957 102.641 78.4555 102.47 78.9007C102.299 79.3458 102.213 79.9046 102.213 80.5675C102.213 81.1737 102.28 81.6945 102.422 82.1397C102.565 82.5848 102.754 82.9447 103.001 83.2383C103.248 83.5319 103.552 83.7497 103.903 83.8918C104.254 84.0338 104.634 84.1096 105.052 84.1096C105.574 84.1096 106.02 84.0054 106.39 83.8065V81.4104L104.387 81.1642V80.5865V80.558Z" fill="white"/>
<path d="M110.216 76.249H111.232V84.8295H110.216V76.249Z" fill="white"/>
<path d="M114.526 76.249H119.206V77.1582H115.542V79.971H118.893V80.8802H115.542V83.9298H119.263V84.839H114.517V76.2585L114.526 76.249Z" fill="white"/>
<path d="M125.965 82.6512C125.965 82.3102 125.861 82.0261 125.662 81.8083C125.453 81.5905 125.196 81.401 124.893 81.2306C124.589 81.0601 124.247 80.9086 123.886 80.757C123.526 80.6055 123.193 80.435 122.88 80.2267C122.567 80.0183 122.32 79.7626 122.111 79.4501C121.902 79.147 121.807 78.7492 121.807 78.2757C121.807 77.6033 122.045 77.0729 122.51 76.6846C122.975 76.2963 123.64 76.0974 124.503 76.0974C125.007 76.0974 125.462 76.1353 125.87 76.2111C126.279 76.2868 126.601 76.3815 126.829 76.4952L126.525 77.4044C126.336 77.3097 126.06 77.2244 125.7 77.1392C125.339 77.054 124.921 77.0161 124.465 77.0161C123.924 77.0161 123.516 77.1392 123.25 77.376C122.985 77.6127 122.842 77.8969 122.842 78.2283C122.842 78.5598 122.947 78.8155 123.146 79.0239C123.355 79.2322 123.611 79.4311 123.915 79.5921C124.219 79.7626 124.56 79.9236 124.921 80.0846C125.282 80.2456 125.614 80.435 125.918 80.6529C126.222 80.8707 126.478 81.1264 126.687 81.4295C126.896 81.7325 126.991 82.1113 126.991 82.5565C126.991 82.9258 126.924 83.2573 126.791 83.5509C126.658 83.8445 126.469 84.1002 126.212 84.3086C125.956 84.5169 125.652 84.6874 125.291 84.801C124.931 84.9147 124.522 84.9715 124.057 84.9715C123.44 84.9715 122.937 84.9242 122.529 84.8295C122.13 84.7347 121.817 84.6306 121.599 84.5169L121.94 83.6077C122.13 83.7119 122.405 83.8161 122.776 83.9108C123.146 84.0055 123.554 84.0623 124.019 84.0623C124.285 84.0623 124.541 84.0339 124.779 83.9866C125.016 83.9297 125.225 83.8445 125.396 83.7309C125.567 83.6077 125.709 83.4657 125.804 83.2857C125.899 83.1058 125.956 82.8974 125.956 82.6512H125.965Z" fill="white"/>
<path d="M133.835 76.3342C134.149 76.2584 134.481 76.2111 134.842 76.1827C135.202 76.1542 135.563 76.1448 135.914 76.1448C136.294 76.1448 136.674 76.1827 137.063 76.2584C137.452 76.3342 137.803 76.4668 138.126 76.6657C138.449 76.8645 138.705 77.1297 138.905 77.4707C139.104 77.8116 139.208 78.2473 139.208 78.7871C139.208 79.327 139.113 79.7531 138.924 80.113C138.734 80.4729 138.487 80.7665 138.174 80.9938C137.86 81.2211 137.509 81.3821 137.101 81.4768C136.702 81.5715 136.285 81.6283 135.857 81.6283H135.658C135.563 81.6283 135.468 81.6283 135.364 81.6283C135.259 81.6283 135.164 81.6189 135.06 81.6094C134.965 81.6094 134.889 81.5905 134.851 81.581V84.8389H133.835V76.3437V76.3342ZM135.933 77.035C135.724 77.035 135.516 77.035 135.316 77.0445C135.117 77.0445 134.965 77.0729 134.851 77.1013V80.6623C134.851 80.6623 134.955 80.6907 135.05 80.6907C135.136 80.6907 135.231 80.6907 135.335 80.7002C135.44 80.7097 135.525 80.7002 135.62 80.7002H135.819C136.095 80.7002 136.37 80.6718 136.645 80.6244C136.921 80.5676 137.167 80.4729 137.386 80.3403C137.604 80.1983 137.784 80.0088 137.917 79.7531C138.05 79.4974 138.117 79.1754 138.117 78.7871C138.117 78.4556 138.05 78.1715 137.927 77.9442C137.803 77.7169 137.633 77.537 137.424 77.4044C137.215 77.2718 136.978 77.1771 136.721 77.1203C136.465 77.0634 136.199 77.035 135.933 77.035Z" fill="white"/>
<path d="M144.99 82.4523H141.838L140.984 84.8295H139.968L143.224 76.1069H143.689L146.955 84.8295H145.873L144.99 82.4523ZM142.161 81.5716H144.677L143.727 78.9576L143.423 77.6601H143.414L143.11 78.986L142.17 81.5716H142.161Z" fill="white"/>
<path d="M149.062 76.3342C149.376 76.2774 149.736 76.2301 150.135 76.2016C150.543 76.1732 150.914 76.1543 151.246 76.1543C151.626 76.1543 151.977 76.1922 152.319 76.2774C152.66 76.3627 152.955 76.4952 153.22 76.6847C153.477 76.8741 153.686 77.1203 153.837 77.4234C153.989 77.7264 154.075 78.0958 154.075 78.5315C154.075 79.2039 153.894 79.7437 153.524 80.1604C153.154 80.5771 152.689 80.8518 152.119 80.9938L152.708 81.4484L154.844 84.8484H153.648L151.274 81.1454L150.069 80.956V84.839H149.053V76.3437L149.062 76.3342ZM151.274 77.0351H150.942C150.828 77.0351 150.714 77.0351 150.61 77.0445C150.505 77.0445 150.401 77.0635 150.306 77.073C150.211 77.073 150.135 77.0919 150.078 77.1108V80.2741H151.037C151.607 80.2741 152.072 80.132 152.442 79.8574C152.812 79.5827 152.993 79.1471 152.993 78.5599C152.993 78.1147 152.841 77.7549 152.537 77.4707C152.233 77.1866 151.815 77.0445 151.274 77.0445V77.0351Z" fill="white"/>
<path d="M162.154 77.1582H159.476V84.839H158.461V77.1582H155.784V76.249H162.163V77.1582H162.154Z" fill="white"/>
<path d="M165.941 79.2133L165.277 77.9727H165.229L165.353 79.2133V84.8295H164.394V76.1069H164.935L169.055 81.8367L169.691 83.0111H169.748L169.615 81.8367V76.249H170.574V84.9716H170.033L165.941 79.2228V79.2133Z" fill="white"/>
<path d="M173.64 76.249H178.32V77.1582H174.656V79.971H178.007V80.8802H174.656V83.9298H178.377V84.839H173.631V76.2585L173.64 76.249Z" fill="white"/>
<path d="M181.197 76.3342C181.51 76.2774 181.871 76.2301 182.27 76.2016C182.678 76.1732 183.048 76.1543 183.38 76.1543C183.76 76.1543 184.111 76.1922 184.453 76.2774C184.795 76.3627 185.089 76.4952 185.355 76.6847C185.611 76.8741 185.82 77.1203 185.972 77.4234C186.124 77.7264 186.209 78.0958 186.209 78.5315C186.209 79.2039 186.029 79.7437 185.659 80.1604C185.288 80.5771 184.823 80.8518 184.254 80.9938L184.842 81.4484L186.978 84.8484H185.782L183.409 81.1454L182.203 80.956V84.839H181.187V76.3437L181.197 76.3342ZM183.409 77.0351H183.077C182.963 77.0351 182.849 77.0351 182.744 77.0445C182.64 77.0445 182.535 77.0635 182.44 77.073C182.346 77.073 182.27 77.0919 182.213 77.1108V80.2741H183.171C183.741 80.2741 184.206 80.132 184.576 79.8574C184.947 79.5827 185.127 79.1471 185.127 78.5599C185.127 78.1147 184.975 77.7549 184.671 77.4707C184.368 77.1866 183.95 77.0445 183.409 77.0445V77.0351Z" fill="white"/>
<path d="M193.367 82.6512C193.367 82.3102 193.263 82.0261 193.063 81.8083C192.855 81.5905 192.598 81.401 192.294 81.2306C191.991 81.0601 191.649 80.9086 191.288 80.757C190.927 80.6055 190.595 80.435 190.282 80.2267C189.969 80.0183 189.722 79.7626 189.513 79.4501C189.304 79.147 189.209 78.7492 189.209 78.2757C189.209 77.6033 189.446 77.0729 189.912 76.6846C190.377 76.2963 191.041 76.0974 191.905 76.0974C192.408 76.0974 192.864 76.1353 193.272 76.2111C193.68 76.2868 194.003 76.3815 194.231 76.4952L193.927 77.4044C193.737 77.3097 193.462 77.2244 193.101 77.1392C192.741 77.054 192.323 77.0161 191.867 77.0161C191.326 77.0161 190.918 77.1392 190.652 77.376C190.386 77.6127 190.244 77.8969 190.244 78.2283C190.244 78.5598 190.348 78.8155 190.548 79.0239C190.757 79.2322 191.013 79.4311 191.317 79.5921C191.62 79.7626 191.962 79.9236 192.323 80.0846C192.684 80.2456 193.016 80.435 193.32 80.6529C193.624 80.8707 193.88 81.1264 194.089 81.4295C194.298 81.7325 194.392 82.1113 194.392 82.5565C194.392 82.9258 194.326 83.2573 194.193 83.5509C194.06 83.8445 193.87 84.1002 193.614 84.3086C193.358 84.5169 193.054 84.6874 192.693 84.801C192.332 84.9147 191.924 84.9715 191.459 84.9715C190.842 84.9715 190.339 84.9242 189.931 84.8295C189.532 84.7347 189.219 84.6306 189 84.5169L189.342 83.6077C189.532 83.7119 189.807 83.8161 190.177 83.9108C190.548 84.0055 190.956 84.0623 191.421 84.0623C191.687 84.0623 191.943 84.0339 192.181 83.9866C192.418 83.9297 192.627 83.8445 192.798 83.7309C192.968 83.6077 193.111 83.4657 193.206 83.2857C193.301 83.1058 193.358 82.8974 193.358 82.6512H193.367Z" fill="white"/>
<path d="M70.6337 0H67.9282V66.5605H70.6337V0Z" fill="#CAB54B"/>
<path d="M142.789 0H140.083V66.5605H142.789V0Z" fill="#CAB54B"/>
<path d="M15.861 41.7304L16.994 49.7581H17.048L18.235 41.5698L28.2706 9.19123H31.0763L41.2198 41.6768L42.4607 49.7046H42.5147L43.8096 41.5163L52.0647 9.1377H57.676L44.0794 58.4281H40.8421L30.9144 25.9424L29.6734 18.6105H29.2957L28.0548 26.0495L18.1271 58.4816H14.8898L0.915466 9.19123H7.06633L15.861 41.6768V41.7304Z" fill="white"/>
<path d="M115.275 45.5795C115.275 43.6837 114.707 42.1038 113.624 40.8926C112.49 39.6814 111.097 38.6282 109.447 37.6802C107.796 36.7323 105.939 35.8898 103.979 35.0472C102.019 34.2046 100.214 33.2567 98.5122 32.0981C96.8102 30.9396 95.4692 29.5177 94.3345 27.7799C93.1998 26.0947 92.684 23.8829 92.684 21.2499C92.684 17.5109 93.9734 14.5618 96.5007 12.4027C99.028 10.2436 102.638 9.1377 107.332 9.1377C110.065 9.1377 112.541 9.34836 114.759 9.76965C116.977 10.1909 118.73 10.7175 119.968 11.3495L118.318 16.405C117.286 15.8784 115.791 15.4044 113.831 14.9305C111.871 14.4565 109.601 14.2459 107.126 14.2459C104.186 14.2459 101.968 14.9305 100.524 16.247C99.0796 17.5635 98.3059 19.1434 98.3059 20.9865C98.3059 22.8297 98.8733 24.2516 99.9564 25.4101C101.091 26.5687 102.484 27.6746 104.134 28.5698C105.785 29.5177 107.641 30.413 109.601 31.3082C111.561 32.2035 113.366 33.2567 115.017 34.4679C116.667 35.6791 118.06 37.101 119.195 38.7862C120.329 40.4713 120.845 42.5778 120.845 45.0529C120.845 47.1067 120.484 48.9498 119.762 50.5824C119.04 52.2149 118.008 53.6367 116.616 54.7953C115.223 55.9538 113.573 56.9017 111.613 57.5337C109.653 58.1656 107.435 58.4816 104.908 58.4816C101.555 58.4816 98.8217 58.2183 96.6039 57.6917C94.4376 57.165 92.7356 56.5858 91.5493 55.9538L93.4061 50.8983C94.4376 51.4776 95.9334 52.0569 97.9449 52.5835C99.9564 53.1101 102.174 53.4261 104.701 53.4261C106.146 53.4261 107.538 53.2681 108.828 53.0048C110.117 52.6888 111.252 52.2149 112.18 51.5829C113.109 50.8983 113.882 50.1084 114.398 49.1078C114.914 48.1073 115.223 46.9487 115.223 45.5795H115.275Z" fill="white"/>
<path d="M163.873 10.2127C165.635 9.7827 167.503 9.51396 169.531 9.35271C171.559 9.19145 173.588 9.1377 175.563 9.1377C177.698 9.1377 179.833 9.35268 182.021 9.78269C184.21 10.2127 186.185 10.9652 188 12.094C189.814 13.2228 191.256 14.7279 192.376 16.6629C193.497 18.598 194.084 21.0705 194.084 24.1344C194.084 27.1982 193.551 29.617 192.483 31.6596C191.416 33.7021 190.028 35.3684 188.266 36.6584C186.505 37.9485 184.53 38.8623 182.235 39.3998C179.993 39.9373 177.644 40.2598 175.243 40.2598H174.122C173.588 40.2598 173.054 40.2598 172.467 40.2598C171.88 40.2598 171.346 40.2061 170.759 40.1523C170.225 40.1523 169.798 40.0448 169.585 39.9911V58.4816H163.873V10.2665V10.2127ZM175.67 14.1903C174.495 14.1903 173.321 14.1903 172.2 14.2441C171.079 14.2441 170.225 14.4054 169.585 14.5666V34.7771C169.585 34.7771 170.172 34.9384 170.705 34.9384C171.186 34.9384 171.72 34.9384 172.307 34.9922C172.894 35.0459 173.374 34.9922 173.908 34.9922H175.029C176.577 34.9922 178.125 34.8309 179.673 34.5621C181.221 34.2396 182.609 33.7021 183.836 32.9496C185.064 32.1433 186.078 31.0683 186.825 29.617C187.573 28.1657 187.946 26.3382 187.946 24.1344C187.946 22.2531 187.573 20.6405 186.879 19.3505C186.185 18.0605 185.224 17.0392 184.05 16.2867C182.875 15.5341 181.541 14.9966 180.1 14.6741C178.659 14.3516 177.164 14.1903 175.67 14.1903Z" fill="white"/>
</svg>
