<svg width="20" height="20" viewBox="0 0 20 20" fill="none" xmlns="http://www.w3.org/2000/svg">
<path fill-rule="evenodd" clip-rule="evenodd" d="M1.74114 3.46657C2.0311 2.98647 3.62871 1.2402 4.76879 1.29292C5.10959 1.32116 5.41084 1.52732 5.65562 1.76643C6.21765 2.31526 7.82656 4.39101 7.91788 4.82781C8.14005 5.89911 6.86347 6.51666 7.25417 7.59642C8.2502 10.0337 9.96643 11.7498 12.4047 12.7449C13.4836 13.1355 14.1012 11.859 15.1725 12.0821C15.6084 12.1734 17.6852 13.7823 18.2341 14.3443C18.4723 14.5881 18.6794 14.8903 18.7076 15.231C18.75 16.4313 16.8954 18.0514 16.5339 18.2585C15.6809 18.8686 14.5682 18.8582 13.2115 18.2275C9.42605 16.6525 3.37641 10.7171 1.77221 6.78872C1.1584 5.43971 1.11603 4.31947 1.74114 3.46657Z" stroke="white" stroke-width="1.5" stroke-linecap="round" stroke-linejoin="round"/>
</svg>
