<svg width="28" height="28" viewBox="0 0 28 28" fill="none" xmlns="http://www.w3.org/2000/svg">
<path fill-rule="evenodd" clip-rule="evenodd" d="M1.98703 4.49663C2.40879 3.7983 4.73258 1.25827 6.39087 1.33495C6.88658 1.37603 7.32477 1.6759 7.68081 2.0237C8.49831 2.822 10.8385 5.84127 10.9714 6.47662C11.2945 8.03487 9.43769 8.93312 10.006 10.5037C11.4547 14.0488 13.9511 16.545 17.4977 17.9923C19.067 18.5606 19.9653 16.7038 21.5236 17.0283C22.1576 17.1612 25.1784 19.5013 25.9768 20.3187C26.3232 20.6734 26.6245 21.1129 26.6655 21.6086C26.7272 23.3544 24.0295 25.711 23.5037 26.0122C22.2631 26.8995 20.6445 26.8845 18.6712 25.967C13.1651 23.6762 4.3656 15.0429 2.03222 9.32884C1.1394 7.36666 1.07778 5.73721 1.98703 4.49663Z" stroke="#CAB54B" stroke-width="1.5" stroke-linecap="round" stroke-linejoin="round"/>
</svg>
