<svg width="21" height="22" viewBox="0 0 21 22" fill="none" xmlns="http://www.w3.org/2000/svg">
<path d="M18.75 0.5H2.25C1.00781 0.5 0 1.50781 0 2.75V19.25C0 20.4922 1.00781 21.5 2.25 21.5H18.75C19.9922 21.5 21 20.4922 21 19.25V2.75C21 1.50781 19.9922 0.5 18.75 0.5ZM16.4578 7.94375C16.4672 8.075 16.4672 8.21094 16.4672 8.34219C16.4672 12.4062 13.3734 17.0891 7.72031 17.0891C5.97656 17.0891 4.35938 16.5828 3 15.7109C3.24844 15.7391 3.4875 15.7484 3.74063 15.7484C5.17969 15.7484 6.50156 15.2609 7.55625 14.4359C6.20625 14.4078 5.07188 13.5219 4.68281 12.3031C5.15625 12.3734 5.58281 12.3734 6.07031 12.2469C4.66406 11.9609 3.60938 10.7234 3.60938 9.22812V9.19062C4.01719 9.42031 4.49531 9.56094 4.99687 9.57969C4.5752 9.2992 4.22952 8.91869 3.99069 8.4721C3.75186 8.02552 3.6273 7.52675 3.62813 7.02031C3.62812 6.44844 3.77813 5.92344 4.04531 5.46875C5.55938 7.33437 7.83281 8.55313 10.3828 8.68438C9.94687 6.59844 11.5078 4.90625 13.3828 4.90625C14.2688 4.90625 15.0656 5.27656 15.6281 5.87656C16.3219 5.74531 16.9875 5.4875 17.5781 5.13594C17.3484 5.84844 16.8656 6.44844 16.2281 6.82812C16.8469 6.7625 17.4469 6.58906 18 6.35C17.5828 6.96406 17.0578 7.50781 16.4578 7.94375Z" fill="white"/>
</svg>
