<svg width="22" height="22" viewBox="0 0 22 22" fill="none" xmlns="http://www.w3.org/2000/svg">
<path d="M19.6429 0H2.35714C1.0558 0 0 1.0558 0 2.35714V19.6429C0 20.9442 1.0558 22 2.35714 22H19.6429C20.9442 22 22 20.9442 22 19.6429V2.35714C22 1.0558 20.9442 0 19.6429 0ZM17.2415 7.79821C17.2513 7.93571 17.2513 8.07812 17.2513 8.21562C17.2513 12.4732 14.0103 17.379 8.08795 17.379C6.26116 17.379 4.56696 16.8487 3.14286 15.9353C3.40313 15.9647 3.65357 15.9746 3.91875 15.9746C5.42634 15.9746 6.81116 15.4638 7.91607 14.5996C6.50179 14.5701 5.31339 13.642 4.9058 12.3652C5.40179 12.4388 5.84866 12.4388 6.35938 12.3062C4.88616 12.0067 3.78125 10.7103 3.78125 9.14375V9.10446C4.20848 9.34509 4.70937 9.49241 5.23482 9.51205C4.79307 9.21821 4.43093 8.81958 4.18072 8.35173C3.93052 7.88388 3.80002 7.36136 3.80089 6.8308C3.80089 6.2317 3.95804 5.6817 4.23795 5.20536C5.82411 7.15982 8.2058 8.43661 10.8772 8.57411C10.4205 6.38884 12.0558 4.61607 14.0201 4.61607C14.9482 4.61607 15.783 5.00402 16.3723 5.63259C17.0991 5.49509 17.7964 5.225 18.4152 4.8567C18.1746 5.60312 17.6688 6.2317 17.0009 6.62946C17.6491 6.56071 18.2777 6.37902 18.8571 6.12857C18.4201 6.77187 17.8701 7.34152 17.2415 7.79821Z" fill="#CAB54B"/>
</svg>
